<svg width="21" height="20" viewBox="0 0 21 20" fill="none" xmlns="http://www.w3.org/2000/svg">
<path d="M19.1769 18.2907L19.3533 18.1141L19.1769 17.9374L15.701 14.457C16.7635 13.1195 17.3984 11.4257 17.3984 9.58412C17.3984 5.25776 13.8957 1.75 9.57422 1.75C5.25272 1.75 1.75 5.25776 1.75 9.58412C1.75 13.9105 5.25272 17.4182 9.57422 17.4182C11.4248 17.4182 13.1258 16.7747 14.4654 15.6992L17.9383 19.1767L18.1152 19.3538L18.2921 19.1767L19.1769 18.2907ZM15.6472 9.58412C15.6472 12.943 12.9279 15.6654 9.57422 15.6654C6.22052 15.6654 3.50125 12.943 3.50125 9.58412C3.50125 6.22524 6.22052 3.50288 9.57422 3.50288C12.9279 3.50288 15.6472 6.22524 15.6472 9.58412Z" fill="white" stroke="white" stroke-width="0.5"/>
</svg>
