<svg width="51" height="51" viewBox="0 0 51 51" fill="none" xmlns="http://www.w3.org/2000/svg">
<path d="M18.7884 38.7448L16.4475 12.5177C16.3738 12.4269 16.3341 12.3133 16.3351 12.1963C16.3354 12.1119 16.3565 12.0288 16.3968 11.9545L16.1515 9.24932C16.145 9.18116 16.1522 9.11238 16.1726 9.04697C16.193 8.98157 16.2262 8.92086 16.2703 8.86839C16.3144 8.81592 16.3685 8.77273 16.4294 8.74136C16.4903 8.70999 16.5569 8.69106 16.6251 8.68567L16.6681 8.68358L33.589 8.66777C33.7264 8.66772 33.8581 8.72221 33.9552 8.81928C34.0523 8.91634 34.1068 9.04804 34.1067 9.18544C34.1075 9.21145 34.1061 9.23748 34.1026 9.26327L33.8603 12.0673C33.8693 12.1055 33.8741 12.1447 33.8745 12.184C33.8743 12.2529 33.8603 12.3212 33.8334 12.3847L31.5703 38.7308L31.5661 38.7676C31.5271 39.4606 31.2358 40.1158 30.7472 40.6096C30.4872 40.8452 30.1756 41.0167 29.8375 41.1102L29.8336 45.2062C29.8331 45.4424 29.7389 45.6689 29.5718 45.8361C29.4046 46.0033 29.1781 46.0974 28.9419 46.098L21.3437 46.1092C21.1051 46.108 20.8768 46.0128 20.7083 45.8442C20.5398 45.6757 20.4446 45.4474 20.4434 45.2089L20.4472 41.1128C20.2079 41.0313 19.9832 40.9119 19.7819 40.7591C19.2437 40.3438 18.9063 39.6908 18.7987 38.7591L18.7884 38.7448ZM31.3086 9.71235L31.3068 11.6703L32.8551 11.6688L33.029 9.70665L31.3086 9.71235ZM30.2746 11.6712L30.2764 9.71331L28.5233 9.71086L28.5214 11.6729L30.2848 11.6692L30.2746 11.6712ZM27.4851 11.6698L27.487 9.70773L25.7216 9.70938L25.7197 11.6714L27.4851 11.6698ZM24.6875 11.6724L24.6893 9.71034L22.928 9.71199L22.9262 11.674L24.6875 11.6724ZM21.8899 11.675L21.8856 9.71911L20.1243 9.72075L20.1224 11.6828L21.8837 11.6811L21.8899 11.675ZM19.0923 11.6776L19.1002 9.72171L17.2345 9.71731L17.4088 11.6792L19.0923 11.6776ZM32.7702 12.6991L17.502 12.7154L19.6241 36.4727L30.7286 36.4623L32.7702 12.6991ZM30.6002 37.9452L19.7579 37.9554L19.8187 38.6475C19.8939 39.2803 20.0963 39.7 20.4094 39.9434C20.8037 40.2038 21.2804 40.3098 21.7485 40.2412L21.8202 40.2349L28.8102 40.2182C29.2502 40.2595 29.6894 40.1284 30.0352 39.8525C30.3372 39.5252 30.512 39.1006 30.5279 38.656L30.59 37.9555L30.6002 37.9452Z" fill="white"/>
<path d="M33.8452 12.1185L31.71 37.1634H18.5619L16.4187 12.1185H33.8452Z" fill="#AA935F"/>
</svg>
